# xmcd
#
# Track frame offsets: 
#        150
#        16176
#        32579
#        51169
#        65487
#        86562
#        106395
#        121590
#        138129
#        154803
#        170003
#
# Disc length: 2448 seconds
#
# Revision: 0
# Processed by: cddbd v1.5.2PL0 Copyright (c) Steve Scherf et al.
# Submitted via: ExactAudioCopy v0.99pb4
#
DISCID=84098e0b
DTITLE=René Evald - Copenhagen Time
DYEAR=2008
DGENRE=Bluesrock
TTITLE0=Not Fade Away
TTITLE1=The River
TTITLE2=Copenhagen Time
TTITLE3=Going Down The Road
TTITLE4=Poor Man
TTITLE5=Sunshine Of Your Love
TTITLE6=Deep River Blues
TTITLE7=Tomorrow«s Such A Long Time
TTITLE8=Always On My Mind
TTITLE9=Old Kentucky Home
TTITLE10=Trouble In Mind
EXTD=
EXTT0=
EXTT1=
EXTT2=
EXTT3=
EXTT4=
EXTT5=
EXTT6=
EXTT7=
EXTT8=
EXTT9=
EXTT10=
PLAYORDER=
